<svg width="209" height="204" viewBox="0 0 209 204" fill="none" xmlns="http://www.w3.org/2000/svg">
<g clip-path="url(#clip0_363_2)">
<mask id="mask0_363_2" style="mask-type:luminance" maskUnits="userSpaceOnUse" x="0" y="-5" width="209" height="209">
<path d="M208.34 -4.34045H0V204H208.34V-4.34045Z" fill="white"/>
</mask>
<g mask="url(#mask0_363_2)">
<path d="M0 63.3941C0 38.0778 16.6513 15.2517 42.8761 9.21356C86.7486 -0.887899 152.968 -9.20947 185.566 21.3511C213.082 47.148 211.047 95.4036 203.263 134.56C195.842 171.891 158.803 195.319 118.297 195.319H32.5532C14.5746 195.319 0 181.655 0 164.801V63.3941Z" fill="url(#paint0_radial_363_2)"/>
</g>
<g filter="url(#filter0_d_363_2)">
<path d="M42.0222 56.2188C42.0222 56.1875 41.9128 56.1719 41.6941 56.1719C41.5066 56.1719 41.3503 56.1875 41.2253 56.2188C40.1316 56.625 39.2409 56.9844 38.5534 57.2969C37.8972 57.5781 37.3347 57.8281 36.8659 58.0469C36.3972 58.2656 35.9753 58.4688 35.6003 58.6562C35.2253 58.8125 34.8034 58.9844 34.3347 59.1719C33.8659 59.3281 33.2722 59.5 32.5534 59.6875C31.8659 59.8438 30.9597 60.0469 29.8347 60.2969V76.5625C29.8347 77.125 29.7097 77.4219 29.4597 77.4531C29.2097 77.4844 28.9284 77.375 28.6159 77.125C28.3347 76.8438 28.0534 76.5 27.7722 76.0938C27.5222 75.6562 27.3972 75.2656 27.3972 74.9219C27.3659 74.2031 27.3191 73.3438 27.2566 72.3438C27.1941 71.3125 27.1316 70.2656 27.0691 69.2031C27.0378 68.1094 26.9909 67.0312 26.9284 65.9688C26.8659 64.9062 26.8034 63.9531 26.7409 63.1094C26.7097 62.2656 26.6784 61.5938 26.6472 61.0938L26.6003 60.2969L22.5222 58.6562C22.4597 58.625 22.4284 58.5156 22.4284 58.3281C22.4284 58.1406 22.4597 57.9688 22.5222 57.8125C22.6784 57.5 22.9284 57.25 23.2722 57.0625C23.6472 56.8438 24.0378 56.6875 24.4441 56.5938C24.8503 56.4688 25.2409 56.3906 25.6159 56.3594C26.0222 56.2969 26.3503 56.25 26.6003 56.2188C26.6003 55.75 26.6316 54.9375 26.6941 53.7812C26.7566 52.625 26.8347 51.4062 26.9284 50.125C27.0222 48.8125 27.1003 47.5781 27.1628 46.4219C27.2566 45.2656 27.3347 44.4688 27.3972 44.0312C27.3972 43.9375 27.4753 43.7031 27.6316 43.3281C27.8191 42.9219 28.0222 42.4844 28.2409 42.0156C28.4909 41.5469 28.7566 41.1094 29.0378 40.7031C29.3191 40.2969 29.5691 40.0156 29.7878 39.8594C30.0378 39.7031 30.2409 39.75 30.3972 40C30.5534 40.2188 30.6316 40.7344 30.6316 41.5469C30.6316 41.7344 30.5847 42.1562 30.4909 42.8125C30.4284 43.4375 30.3347 44.1094 30.2097 44.8281C30.1159 45.5469 30.0222 46.2344 29.9284 46.8906C29.8659 47.5156 29.8347 47.9219 29.8347 48.1094C29.8034 48.4531 29.7722 49.0469 29.7409 49.8906C29.7409 50.7031 29.7409 51.5938 29.7409 52.5625C29.7409 53.5 29.7409 54.3906 29.7409 55.2344C29.7722 56.0781 29.8034 56.6719 29.8347 57.0156C30.6159 57.2031 31.6472 57.2344 32.9284 57.1094C34.2097 56.9844 35.4909 56.7344 36.7722 56.3594C38.0847 55.9531 39.3034 55.4688 40.4284 54.9062C41.5534 54.3125 42.3659 53.6719 42.8659 52.9844C43.4597 52.1094 43.9128 51.1094 44.2253 49.9844C44.5378 48.8594 44.8191 47.7188 45.0691 46.5625C45.3191 45.375 45.6316 44.2031 46.0066 43.0469C46.3816 41.8906 46.9441 40.8438 47.6941 39.9062C48.6003 38.8125 49.4909 38.0625 50.3659 37.6562C51.2722 37.25 52.1003 37.1094 52.8503 37.2344C53.6003 37.3281 54.2409 37.6562 54.7722 38.2188C55.3347 38.75 55.6941 39.4062 55.8503 40.1875C56.0378 40.9688 56.0066 41.8438 55.7566 42.8125C55.5378 43.75 55.0222 44.6875 54.2097 45.625C53.9909 45.875 53.6472 46.2344 53.1784 46.7031C52.7409 47.1719 52.2253 47.7031 51.6316 48.2969C51.0691 48.8906 50.4597 49.5156 49.8034 50.1719C49.1784 50.8281 48.5691 51.4531 47.9753 52.0469C47.3816 52.6094 46.8347 53.125 46.3347 53.5938C45.8659 54.0625 45.5222 54.4062 45.3034 54.625C45.1159 56.5 45.0534 58.4531 45.1159 60.4844C45.1784 62.5156 45.3347 64.5469 45.5847 66.5781C45.8347 68.6094 46.1472 70.6094 46.5222 72.5781C46.8972 74.5469 47.2878 76.4219 47.6941 78.2031H44.5066L42.0222 56.2188ZM47.6941 44.8281C47.6316 45.0469 47.5222 45.4219 47.3659 45.9531C47.2097 46.4844 47.0378 47.0625 46.8503 47.6875C46.6941 48.2812 46.5378 48.8594 46.3816 49.4219C46.2566 49.9531 46.1628 50.3281 46.1003 50.5469C47.0378 50.0781 47.8972 49.4219 48.6784 48.5781C49.4909 47.7344 50.1941 46.8438 50.7878 45.9062C51.3816 44.9688 51.8659 44.0469 52.2409 43.1406C52.6472 42.2344 52.8972 41.4688 52.9909 40.8438C53.1159 40.2188 53.0847 39.7969 52.8972 39.5781C52.7097 39.3594 52.3347 39.4688 51.7722 39.9062C50.9597 40.5938 50.1628 41.3281 49.3816 42.1094C48.6316 42.8906 48.0691 43.7969 47.6941 44.8281ZM66.8772 90.8125C66.1272 89.8438 65.6741 88.7031 65.5178 87.3906C65.3616 86.1094 65.3928 84.75 65.6116 83.3125C65.8616 81.875 66.2522 80.4219 66.7834 78.9531C67.3459 77.4531 67.9553 76.0312 68.6116 74.6875C69.2678 73.3125 69.9553 72.0625 70.6741 70.9375C71.3928 69.7812 72.0334 68.8281 72.5959 68.0781C73.9397 66.2969 75.0334 64.7656 75.8772 63.4844C76.7209 62.2031 77.2834 60.9375 77.5647 59.6875C77.8772 58.4062 77.8928 57.0469 77.6116 55.6094C77.3616 54.1406 76.7834 52.3281 75.8772 50.1719C74.8772 54.4219 73.6428 58.125 72.1741 61.2812C70.7053 64.4375 69.2053 66.9375 67.6741 68.7812C66.1741 70.625 64.7209 71.75 63.3147 72.1562C61.9397 72.5625 60.8147 72.1562 59.9397 70.9375C59.0959 69.6875 58.5959 67.5625 58.4397 64.5625C58.2834 61.5625 58.6741 57.5625 59.6116 52.5625C59.7678 52.0625 60.1116 51.7812 60.6428 51.7188C61.1741 51.625 61.6428 51.6406 62.0491 51.7656V67.2344C62.0491 68.5781 62.2366 69.4062 62.6116 69.7188C63.0178 70 63.5022 69.9688 64.0647 69.625C64.6584 69.25 65.2834 68.6562 65.9397 67.8438C66.6272 67.0312 67.2678 66.1875 67.8616 65.3125C68.4866 64.4375 69.0022 63.6406 69.4084 62.9219C69.8459 62.2031 70.0959 61.7344 70.1584 61.5156C70.3147 61.0781 70.5178 60.4062 70.7678 59.5C71.0491 58.5625 71.3459 57.5156 71.6584 56.3594C72.0022 55.1719 72.3459 53.9375 72.6897 52.6562C73.0647 51.3438 73.4084 50.0938 73.7209 48.9062C74.0334 47.7188 74.2991 46.6562 74.5178 45.7188C74.7678 44.7812 74.9553 44.0781 75.0803 43.6094C75.1741 43.3906 75.3303 43.2031 75.5491 43.0469C75.7991 42.8906 76.0491 42.7969 76.2991 42.7656C76.5803 42.7344 76.8303 42.7812 77.0491 42.9062C77.2678 43.0312 77.4241 43.2656 77.5178 43.6094L80.7522 59.0781C80.8147 59.2969 81.0491 59.3438 81.4553 59.2188C81.8928 59.0938 82.4241 58.875 83.0491 58.5625C83.6741 58.2188 84.3459 57.8281 85.0647 57.3906C85.7834 56.9531 86.4553 56.5156 87.0803 56.0781C87.7366 55.6406 88.2991 55.25 88.7678 54.9062C89.2678 54.5625 89.5803 54.3281 89.7053 54.2031C90.7053 54.3594 91.2209 54.6562 91.2522 55.0938C91.2834 55.5 91.0334 56 90.5022 56.5938C89.9709 57.1875 89.2366 57.8281 88.2991 58.5156C87.3616 59.1719 86.4241 59.8125 85.4866 60.4375C84.5803 61.0312 83.7522 61.5781 83.0022 62.0781C82.2522 62.5781 81.7834 62.9375 81.5959 63.1562C81.5959 63.4688 81.5803 63.9375 81.5491 64.5625C81.5178 65.1875 81.4709 65.9062 81.4084 66.7188C81.3772 67.5312 81.3303 68.375 81.2678 69.25C81.2053 70.125 81.1428 70.9688 81.0803 71.7812C81.0178 72.5938 80.9553 73.3125 80.8928 73.9375L80.7522 75.3438C80.6897 75.75 80.5334 76.4062 80.2834 77.3125C80.0647 78.2188 79.7522 79.2344 79.3459 80.3594C78.9397 81.5156 78.4553 82.7188 77.8928 83.9688C77.3616 85.25 76.7678 86.4531 76.1116 87.5781C75.4866 88.7031 74.7991 89.7031 74.0491 90.5781C73.3303 91.4844 72.5647 92.125 71.7522 92.5C70.9709 92.9062 70.1584 93 69.3147 92.7812C68.5022 92.5625 67.6897 91.9062 66.8772 90.8125ZM69.3616 89.1719C69.8303 89.8594 70.3459 90.1094 70.9084 89.9219C71.4709 89.7344 72.0491 89.2812 72.6428 88.5625C73.2366 87.8438 73.8147 86.9531 74.3772 85.8906C74.9397 84.8594 75.4397 83.8281 75.8772 82.7969C76.3459 81.7969 76.7209 80.8906 77.0022 80.0781C77.2834 79.2969 77.4553 78.8125 77.5178 78.625C77.9553 76.5312 78.2209 74.3594 78.3147 72.1094C78.4397 69.8594 78.4397 67.6875 78.3147 65.5938C77.4397 66.3438 76.5022 67.2969 75.5022 68.4531C74.5022 69.5781 73.5334 70.8281 72.5959 72.2031C71.6897 73.5469 70.8616 74.9688 70.1116 76.4688C69.3616 77.9688 68.7991 79.4531 68.4241 80.9219C68.0491 82.4219 67.9084 83.875 68.0022 85.2812C68.1272 86.6875 68.5803 87.9844 69.3616 89.1719ZM98.5291 65.1719C98.3103 65.3594 97.9509 65.6719 97.4509 66.1094C96.9822 66.5156 96.4353 66.9375 95.8103 67.375C95.2166 67.7812 94.5759 68.1094 93.8884 68.3594C93.2322 68.6094 92.6072 68.6406 92.0134 68.4531C91.7634 68.3594 91.5603 68.2188 91.4041 68.0312C91.2791 67.8438 91.1853 67.6406 91.1228 67.4219C91.0916 67.1719 91.0759 66.9219 91.0759 66.6719C91.1072 66.4219 91.1541 66.1875 91.2166 65.9688L99.7478 61.0938V47.2656C99.7478 46.9844 99.9197 46.7812 100.263 46.6562C100.607 46.5 100.982 46.4219 101.388 46.4219C101.795 46.4219 102.17 46.5 102.513 46.6562C102.857 46.7812 103.029 46.9844 103.029 47.2656V58.6562C104.342 57.9688 105.623 57.125 106.873 56.125C108.154 55.0938 109.248 54.0312 110.154 52.9375C111.092 51.8125 111.763 50.7188 112.17 49.6562C112.576 48.5938 112.576 47.6719 112.17 46.8906C111.763 46.0781 110.857 45.4844 109.451 45.1094C108.076 44.7031 106.06 44.6094 103.404 44.8281C102.842 44.8906 102.123 45.0625 101.248 45.3438C100.373 45.625 99.4197 45.9688 98.3884 46.375C97.3572 46.7812 96.2947 47.2031 95.2009 47.6406C94.1384 48.0781 93.1228 48.4844 92.1541 48.8594C91.1853 49.2031 90.3259 49.4688 89.5759 49.6562C88.8259 49.8125 88.2791 49.8281 87.9353 49.7031C88.0291 49.1719 88.2478 48.7031 88.5916 48.2969C88.9353 47.8594 89.3416 47.4688 89.8103 47.125C90.3103 46.7812 90.8259 46.4844 91.3572 46.2344C91.8884 45.9844 92.3884 45.7812 92.8572 45.625C94.7634 45 96.4041 44.4688 97.7791 44.0312C99.1541 43.5938 100.498 43.2656 101.81 43.0469C103.154 42.8281 104.576 42.7344 106.076 42.7656C107.576 42.7656 109.404 42.9062 111.56 43.1875C113.31 43.625 114.513 44.2188 115.17 44.9688C115.857 45.7188 116.154 46.5625 116.06 47.5C115.967 48.4375 115.576 49.4375 114.888 50.5C114.201 51.5312 113.357 52.5781 112.357 53.6406C111.388 54.6719 110.326 55.6875 109.17 56.6875C108.045 57.6875 106.998 58.5938 106.029 59.4062C105.06 60.2188 104.248 60.9219 103.592 61.5156C102.967 62.1094 102.638 62.5156 102.607 62.7344L100.967 77.3594L100.685 77.7344C100.529 77.9531 100.326 78.1875 100.076 78.4375C99.8572 78.6562 99.5916 78.8438 99.2791 79C98.9978 79.1562 98.7478 79.1562 98.5291 79V65.1719ZM121.415 78.2031C120.197 77.2969 119.384 76.2188 118.978 74.9688C118.603 73.7188 118.322 72.3594 118.134 70.8906C118.197 70.4531 118.275 69.7656 118.368 68.8281C118.462 67.8906 118.572 66.8438 118.697 65.6875C118.822 64.5 118.931 63.25 119.025 61.9375C119.15 60.625 119.259 59.3906 119.353 58.2344C119.478 57.0469 119.572 55.9844 119.634 55.0469C119.697 54.1094 119.743 53.4219 119.775 52.9844C119.806 52.7344 119.822 52.2969 119.822 51.6719V47.7812C119.822 47.1562 119.806 46.7188 119.775 46.4688L120.618 45.625L135.243 40.75H136.884C137.04 41.1875 137.056 41.6562 136.931 42.1562C136.837 42.6562 136.54 43 136.04 43.1875L123.853 48.1094L123.056 48.9062C123.025 48.9375 122.978 49.2656 122.915 49.8906C122.853 50.5156 122.775 51.2656 122.681 52.1406C122.587 52.9844 122.493 53.8594 122.4 54.7656C122.306 55.6719 122.243 56.4219 122.212 57.0156C122.212 57.1719 122.197 57.4531 122.165 57.8594C122.165 58.2344 122.165 58.6406 122.165 59.0781C122.165 59.4844 122.165 59.8906 122.165 60.2969C122.197 60.6719 122.212 60.9375 122.212 61.0938L136.04 53.7812C136.259 53.6562 136.415 53.6875 136.509 53.875C136.634 54.0625 136.697 54.3125 136.697 54.625C136.697 54.9375 136.634 55.25 136.509 55.5625C136.415 55.875 136.259 56.0938 136.04 56.2188C135.509 56.5625 134.853 56.9531 134.072 57.3906C133.322 57.8281 132.525 58.2969 131.681 58.7969C130.868 59.2656 130.04 59.7344 129.197 60.2031C128.384 60.6719 127.65 61.0938 126.993 61.4688C126.337 61.8438 125.79 62.1562 125.353 62.4062C124.947 62.625 124.728 62.7344 124.697 62.7344H121.415V73.2812C121.415 74.7188 121.728 75.6406 122.353 76.0469C123.009 76.4531 123.822 76.5469 124.79 76.3281C125.79 76.0781 126.868 75.6094 128.025 74.9219C129.181 74.2344 130.259 73.5 131.259 72.7188C132.29 71.9375 133.165 71.2188 133.884 70.5625C134.634 69.875 135.087 69.4375 135.243 69.25C135.368 68.4688 135.54 67.8281 135.759 67.3281C135.947 66.8906 136.197 66.5781 136.509 66.3906C136.822 66.2031 137.212 66.3438 137.681 66.8125C137.868 67.7812 137.712 68.8281 137.212 69.9531C136.743 71.0781 136.056 72.1719 135.15 73.2344C134.243 74.2969 133.165 75.2812 131.915 76.1875C130.697 77.0625 129.447 77.7656 128.165 78.2969C126.915 78.7969 125.697 79.0625 124.509 79.0938C123.322 79.1562 122.29 78.8594 121.415 78.2031Z" fill="white"/>
</g>
<g filter="url(#filter1_d_363_2)">
<path d="M111.18 149.062C111.138 148.854 110.972 148.479 110.68 147.938C110.43 147.396 110.222 147.042 110.055 146.875C109.597 146.708 108.743 146.438 107.493 146.062C106.284 145.646 104.993 145.208 103.618 144.75C102.243 144.25 100.93 143.792 99.68 143.375C98.4717 142.958 97.6175 142.667 97.1175 142.5C96.9925 142.458 96.7217 142.333 96.305 142.125C95.8883 141.875 95.43 141.625 94.93 141.375C94.43 141.083 93.9717 140.833 93.555 140.625C93.1383 140.417 92.8675 140.312 92.7425 140.312C91.9508 140.312 91.2008 140.792 90.4925 141.75C89.7842 142.708 89.0758 143.896 88.3675 145.312C87.6592 146.729 86.9092 148.25 86.1175 149.875C85.3258 151.458 84.4508 152.896 83.4925 154.188C82.5342 155.479 81.4717 156.5 80.305 157.25C79.18 157.958 77.9092 158.125 76.4925 157.75V155.562C76.7842 155.188 77.2425 154.604 77.8675 153.812C78.5342 153.021 79.2425 152.125 79.9925 151.125C80.7842 150.125 81.6175 149.083 82.4925 148C83.3675 146.875 84.18 145.812 84.93 144.812C85.7217 143.812 86.4092 142.917 86.9925 142.125C87.6175 141.333 88.0758 140.729 88.3675 140.312C88.9092 139.604 88.9925 138.625 88.6175 137.375C88.2842 136.083 87.7633 134.708 87.055 133.25C86.3883 131.792 85.6592 130.333 84.8675 128.875C84.0758 127.417 83.5133 126.167 83.18 125.125C82.8467 124.083 82.8675 123.333 83.2425 122.875C83.6175 122.417 84.6383 122.458 86.305 123C86.8883 124.75 87.7008 126.542 88.7425 128.375C89.7842 130.208 91.1175 131.667 92.7425 132.75C94.0758 131.875 95.3258 130.688 96.4925 129.188C97.7008 127.688 98.805 126 99.805 124.125C100.847 122.25 101.784 120.271 102.618 118.188C103.493 116.062 104.263 113.979 104.93 111.938C105.638 109.854 106.243 107.896 106.743 106.062C107.243 104.229 107.659 102.646 107.993 101.312C108.326 100.729 108.784 100.271 109.368 99.9375C109.993 99.6042 110.597 99.3333 111.18 99.125C111.472 99.5 111.659 100.417 111.743 101.875C111.826 103.333 111.868 105.125 111.868 107.25C111.868 109.333 111.826 111.667 111.743 114.25C111.701 116.792 111.659 119.375 111.618 122C111.618 124.583 111.638 127.125 111.68 129.625C111.722 132.083 111.826 134.271 111.993 136.188C112.201 138.062 112.493 139.583 112.868 140.75C113.243 141.917 113.763 142.5 114.43 142.5H120.993V146.375H115.555C114.805 146.375 114.513 146.854 114.68 147.812C114.847 148.729 115.222 149.917 115.805 151.375C116.43 152.833 117.138 154.458 117.93 156.25C118.763 158 119.451 159.688 119.993 161.312C120.576 162.938 120.909 164.417 120.993 165.75C121.076 167.083 120.701 168.021 119.868 168.562C119.701 168.646 119.326 168.688 118.743 168.688C118.201 168.688 117.847 168.646 117.68 168.562C117.472 167.812 117.055 166.521 116.43 164.688C115.805 162.854 115.138 160.896 114.43 158.812C113.763 156.729 113.118 154.771 112.493 152.938C111.868 151.104 111.43 149.812 111.18 149.062ZM100.368 139.25C100.618 139.375 101.076 139.604 101.743 139.938C102.451 140.229 103.201 140.562 103.993 140.938C104.826 141.271 105.618 141.583 106.368 141.875C107.118 142.167 107.659 142.375 107.993 142.5C108.076 142.542 108.243 142.562 108.493 142.562C108.743 142.562 108.909 142.542 108.993 142.5C109.159 140.792 109.159 138.646 108.993 136.062C108.826 133.479 108.597 130.833 108.305 128.125C108.055 125.417 107.784 122.833 107.493 120.375C107.201 117.875 106.993 115.875 106.868 114.375L94.93 136.062C95.0967 136.188 95.43 136.417 95.93 136.75C96.4717 137.042 97.0133 137.375 97.555 137.75C98.1383 138.083 98.68 138.396 99.18 138.688C99.7217 138.979 100.118 139.167 100.368 139.25ZM134.445 176.75C133.445 175.458 132.841 173.938 132.632 172.188C132.424 170.479 132.466 168.667 132.757 166.75C133.091 164.833 133.612 162.896 134.32 160.938C135.07 158.938 135.882 157.042 136.757 155.25C137.632 153.417 138.549 151.75 139.507 150.25C140.466 148.708 141.32 147.438 142.07 146.438C143.862 144.062 145.32 142.021 146.445 140.312C147.57 138.604 148.32 136.917 148.695 135.25C149.112 133.542 149.132 131.729 148.757 129.812C148.424 127.854 147.653 125.438 146.445 122.562C145.112 128.229 143.466 133.167 141.507 137.375C139.549 141.583 137.549 144.917 135.507 147.375C133.507 149.833 131.57 151.333 129.695 151.875C127.862 152.417 126.362 151.875 125.195 150.25C124.07 148.583 123.403 145.75 123.195 141.75C122.987 137.75 123.507 132.417 124.757 125.75C124.966 125.083 125.424 124.708 126.132 124.625C126.841 124.5 127.466 124.521 128.007 124.688V145.312C128.007 147.104 128.257 148.208 128.757 148.625C129.299 149 129.945 148.958 130.695 148.5C131.487 148 132.32 147.208 133.195 146.125C134.112 145.042 134.966 143.917 135.757 142.75C136.591 141.583 137.278 140.521 137.82 139.562C138.403 138.604 138.737 137.979 138.82 137.688C139.028 137.104 139.299 136.208 139.632 135C140.007 133.75 140.403 132.354 140.82 130.812C141.278 129.229 141.737 127.583 142.195 125.875C142.695 124.125 143.153 122.458 143.57 120.875C143.987 119.292 144.341 117.875 144.632 116.625C144.966 115.375 145.216 114.438 145.382 113.812C145.507 113.521 145.716 113.271 146.007 113.062C146.341 112.854 146.674 112.729 147.007 112.688C147.382 112.646 147.716 112.708 148.007 112.875C148.299 113.042 148.507 113.354 148.632 113.812L152.945 134.438C153.028 134.729 153.341 134.792 153.882 134.625C154.466 134.458 155.174 134.167 156.007 133.75C156.841 133.292 157.737 132.771 158.695 132.188C159.653 131.604 160.549 131.021 161.382 130.438C162.257 129.854 163.007 129.333 163.632 128.875C164.299 128.417 164.716 128.104 164.882 127.938C166.216 128.146 166.903 128.542 166.945 129.125C166.987 129.667 166.653 130.333 165.945 131.125C165.237 131.917 164.257 132.771 163.007 133.688C161.757 134.562 160.507 135.417 159.257 136.25C158.049 137.042 156.945 137.771 155.945 138.438C154.945 139.104 154.32 139.583 154.07 139.875C154.07 140.292 154.049 140.917 154.007 141.75C153.966 142.583 153.903 143.542 153.82 144.625C153.778 145.708 153.716 146.833 153.632 148C153.549 149.167 153.466 150.292 153.382 151.375C153.299 152.458 153.216 153.417 153.132 154.25L152.945 156.125C152.862 156.667 152.653 157.542 152.32 158.75C152.028 159.958 151.612 161.312 151.07 162.812C150.528 164.354 149.882 165.958 149.132 167.625C148.424 169.333 147.632 170.938 146.757 172.438C145.924 173.938 145.007 175.271 144.007 176.438C143.049 177.646 142.028 178.5 140.945 179C139.903 179.542 138.82 179.667 137.695 179.375C136.612 179.083 135.528 178.208 134.445 176.75ZM137.757 174.562C138.382 175.479 139.07 175.812 139.82 175.562C140.57 175.312 141.341 174.708 142.132 173.75C142.924 172.792 143.695 171.604 144.445 170.188C145.195 168.812 145.862 167.438 146.445 166.062C147.07 164.729 147.57 163.521 147.945 162.438C148.32 161.396 148.549 160.75 148.632 160.5C149.216 157.708 149.57 154.812 149.695 151.812C149.862 148.812 149.862 145.917 149.695 143.125C148.528 144.125 147.278 145.396 145.945 146.938C144.612 148.438 143.32 150.104 142.07 151.938C140.862 153.729 139.757 155.625 138.757 157.625C137.757 159.625 137.007 161.604 136.507 163.562C136.007 165.562 135.82 167.5 135.945 169.375C136.112 171.25 136.716 172.979 137.757 174.562Z" fill="white"/>
</g>
</g>
<defs>
<filter id="filter0_d_363_2" x="18.4287" y="37.0469" width="123.534" height="64.0625" filterUnits="userSpaceOnUse" color-interpolation-filters="sRGB">
<feFlood flood-opacity="0" result="BackgroundImageFix"/>
<feColorMatrix in="SourceAlpha" type="matrix" values="0 0 0 0 0 0 0 0 0 0 0 0 0 0 0 0 0 0 127 0" result="hardAlpha"/>
<feOffset dy="4"/>
<feGaussianBlur stdDeviation="2"/>
<feComposite in2="hardAlpha" operator="out"/>
<feColorMatrix type="matrix" values="0 0 0 0 0 0 0 0 0 0 0 0 0 0 0 0 0 0 0.25 0"/>
<feBlend mode="normal" in2="BackgroundImageFix" result="effect1_dropShadow_363_2"/>
<feBlend mode="normal" in="SourceGraphic" in2="effect1_dropShadow_363_2" result="shape"/>
</filter>
<filter id="filter1_d_363_2" x="72.4922" y="99.125" width="98.5151" height="88.6875" filterUnits="userSpaceOnUse" color-interpolation-filters="sRGB">
<feFlood flood-opacity="0" result="BackgroundImageFix"/>
<feColorMatrix in="SourceAlpha" type="matrix" values="0 0 0 0 0 0 0 0 0 0 0 0 0 0 0 0 0 0 127 0" result="hardAlpha"/>
<feOffset dy="4"/>
<feGaussianBlur stdDeviation="2"/>
<feComposite in2="hardAlpha" operator="out"/>
<feColorMatrix type="matrix" values="0 0 0 0 0 0 0 0 0 0 0 0 0 0 0 0 0 0 0.25 0"/>
<feBlend mode="normal" in2="BackgroundImageFix" result="effect1_dropShadow_363_2"/>
<feBlend mode="normal" in="SourceGraphic" in2="effect1_dropShadow_363_2" result="shape"/>
</filter>
<radialGradient id="paint0_radial_363_2" cx="0" cy="0" r="1" gradientUnits="userSpaceOnUse" gradientTransform="translate(17.3617 20.3457) rotate(44.8233) scale(186.643 186.806)">
<stop stop-color="#FBC618"/>
<stop offset="1" stop-color="#CF2B8A"/>
</radialGradient>
<clipPath id="clip0_363_2">
<rect width="208.34" height="204" fill="white"/>
</clipPath>
</defs>
</svg>
