<svg width="505" height="506" viewBox="0 0 505 506" fill="none" xmlns="http://www.w3.org/2000/svg">
<g clip-path="url(#clip0_315_10)">
<mask id="mask0_315_10" style="mask-type:luminance" maskUnits="userSpaceOnUse" x="0" y="0" width="505" height="506">
<path d="M505 0.5H0V505.5H505V0.5Z" fill="white"/>
</mask>
<g mask="url(#mask0_315_10)">
<path d="M414.573 43.5779C455.283 72.3338 484.948 116.89 497.571 164.606C509.879 212.637 505.461 263.829 494.731 317.865C483.686 371.901 466.013 428.465 427.827 462.593C389.642 497.037 330.312 509.045 274.454 504.621C218.595 500.197 165.893 479.025 125.814 445.529C85.4189 411.717 57.6476 365.265 33.9788 312.809C10.31 260.353 -9.25622 201.577 4.62947 151.966C18.1996 102.038 64.906 61.2738 114.768 35.3619C164.946 9.76592 217.964 -0.66205 270.351 0.601943C322.738 1.86594 374.178 14.8219 414.573 43.5779Z" fill="#32334C"/>
</g>
</g>
<defs>
<clipPath id="clip0_315_10">
<rect width="505" height="505" fill="white" transform="translate(0 0.5)"/>
</clipPath>
</defs>
</svg>
